<?xml version="1.0" standalone="no"?>
<!DOCTYPE svg PUBLIC "-//W3C//DTD SVG 20010904//EN"
 "http://www.w3.org/TR/2001/REC-SVG-20010904/DTD/svg10.dtd">
<svg version="1.0" xmlns="http://www.w3.org/2000/svg"
 width="1130.000000pt" height="709.000000pt" viewBox="0 0 1130.000000 709.000000"
 preserveAspectRatio="xMidYMid meet">

<g transform="translate(0.000000,709.000000) scale(0.100000,-0.100000)"
fill="#000000" stroke="none">
<path d="M6265 5588 c-31 -136 -45 -200 -45 -208 0 -6 94 -10 244 -10 134 0
258 -3 276 -6 l32 -7 -5 -52 c-3 -29 -15 -71 -26 -93 -45 -88 -1074 -1808
-1093 -1827 l-20 -20 6 45 c4 25 72 375 152 779 80 403 143 735 141 737 -6 7
-259 -100 -263 -111 -5 -16 -261 -1325 -268 -1371 -7 -49 7 -142 29 -188 24
-49 81 -103 131 -122 92 -35 215 9 285 101 54 72 1119 1861 1143 1920 15 39
20 74 20 155 1 120 -15 170 -75 229 -63 63 -75 66 -381 69 l-277 3 -6 -23z"/>
<path d="M2443 5221 c-46 -22 -73 -62 -73 -111 0 -40 43 -84 96 -99 21 -6 65
-17 96 -26 98 -26 116 -96 33 -131 -65 -27 -139 -11 -187 40 -22 24 -26 25
-37 12 -30 -36 50 -95 139 -104 98 -9 182 42 182 111 0 69 -43 104 -157 127
-93 19 -115 34 -115 81 0 85 152 106 213 28 22 -29 24 -29 40 -11 16 17 15 20
-16 49 -58 55 -139 68 -214 34z"/>
<path d="M8099 5217 c-43 -28 -78 -95 -58 -108 22 -14 28 -11 42 24 20 46 44
62 93 62 80 0 120 -76 80 -153 -16 -30 -109 -122 -173 -171 -73 -55 -63 -61
102 -61 138 0 145 1 145 20 0 19 -7 20 -112 20 l-111 0 44 31 c107 76 169 157
169 220 0 109 -130 177 -221 116z"/>
<path d="M8593 5224 c-21 -10 -41 -34 -58 -67 -21 -43 -25 -65 -25 -136 0 -96
18 -148 64 -191 37 -34 130 -36 173 -4 54 41 68 79 68 189 0 110 -17 161 -67
198 -36 27 -114 32 -155 11z m130 -44 c34 -27 50 -79 50 -160 0 -81 -16 -133
-50 -160 -48 -37 -121 -20 -147 34 -39 83 -27 227 24 278 35 34 85 38 123 8z"/>
<path d="M9059 5217 c-43 -28 -78 -95 -58 -108 22 -14 28 -11 42 24 20 46 44
62 93 62 80 0 120 -76 80 -153 -16 -30 -109 -122 -173 -171 -73 -55 -63 -61
102 -61 138 0 145 1 145 20 0 19 -7 20 -112 20 l-111 0 44 31 c107 76 169 157
169 220 0 109 -130 177 -221 116z"/>
<path d="M9537 5225 c-54 -28 -93 -99 -65 -116 21 -14 27 -11 34 15 18 72 123
98 170 43 29 -34 31 -75 5 -126 -20 -39 -101 -119 -171 -168 -22 -15 -40 -36
-40 -45 0 -16 13 -18 145 -18 138 0 145 1 145 20 0 19 -7 20 -111 20 l-112 0
65 49 c116 88 159 164 138 242 -22 81 -127 124 -203 84z"/>
<path d="M1890 5020 l0 -210 155 0 c148 0 155 1 155 20 0 19 -7 20 -135 20
l-135 0 0 75 0 75 100 0 c93 0 100 1 100 20 0 19 -7 20 -100 20 l-100 0 0 75
0 75 130 0 c123 0 130 1 130 20 0 19 -7 20 -150 20 l-150 0 0 -210z"/>
<path d="M2830 5210 c0 -18 7 -20 75 -20 l75 0 0 -190 c0 -183 1 -190 20 -190
19 0 20 7 20 190 l0 190 80 0 c73 0 80 2 80 20 0 19 -7 20 -175 20 -168 0
-175 -1 -175 -20z"/>
<path d="M3360 5020 l0 -210 98 1 c105 1 146 11 187 47 78 68 87 221 18 303
-44 52 -94 69 -205 69 l-98 0 0 -210z m219 152 c60 -30 76 -63 76 -152 0 -64
-4 -84 -21 -107 -33 -45 -79 -63 -161 -63 l-73 0 0 170 0 170 73 0 c49 0 83
-6 106 -18z"/>
<path d="M3720 2460 c-122 -22 -230 -88 -290 -175 -42 -61 -59 -102 -90 -220
l-27 -100 -99 -3 -100 -3 -30 -134 -31 -135 99 0 c54 0 98 -3 97 -7 0 -5 -44
-197 -98 -428 l-97 -420 189 -3 c105 -1 191 -1 192 0 2 2 48 194 102 428 l99
425 150 3 151 3 30 132 29 132 -157 3 -157 2 19 72 c30 120 71 158 176 165 47
4 82 0 113 -11 24 -8 45 -14 45 -13 1 1 19 52 40 112 21 61 40 115 42 122 3 6
-21 21 -54 33 -46 18 -84 23 -178 26 -66 1 -140 -1 -165 -6z"/>
<path d="M785 2334 c-248 -45 -405 -174 -446 -366 -18 -81 -6 -199 26 -265 63
-127 179 -202 445 -289 165 -53 212 -74 234 -106 41 -58 -6 -156 -89 -188 -16
-6 -64 -11 -107 -11 -183 0 -356 87 -463 232 l-42 57 -113 -113 -113 -113 37
-50 c102 -140 283 -250 486 -297 102 -24 309 -24 405 0 175 43 310 141 377
274 32 64 33 69 33 191 0 143 -12 179 -89 258 -66 70 -142 108 -338 173 -190
63 -227 80 -268 124 -29 31 -32 90 -5 131 44 68 210 87 344 41 86 -30 171 -86
213 -140 17 -23 35 -46 39 -51 7 -8 228 184 237 205 5 12 -97 120 -152 162
-112 85 -232 130 -387 147 -121 12 -166 11 -264 -6z"/>
<path d="M8946 2339 c-105 -12 -164 -28 -251 -69 -283 -132 -444 -417 -446
-792 -1 -326 138 -534 423 -634 100 -36 295 -44 418 -20 276 56 480 243 569
521 73 226 67 509 -14 665 -53 103 -137 187 -245 248 -85 48 -149 68 -256 81
-97 12 -98 12 -198 0z m230 -331 c96 -48 144 -147 144 -297 0 -112 -20 -217
-59 -316 -37 -92 -73 -146 -136 -203 -66 -62 -104 -76 -205 -76 -75 0 -91 3
-139 29 -109 59 -146 151 -138 334 12 273 125 484 295 548 56 20 178 11 238
-19z"/>
<path d="M10445 2334 c-150 -27 -271 -87 -347 -172 -126 -140 -144 -361 -42
-509 69 -100 154 -150 395 -232 97 -32 190 -66 207 -75 64 -33 78 -89 40 -157
-32 -57 -86 -80 -187 -80 -186 0 -359 86 -466 232 l-42 57 -113 -113 -113
-114 42 -55 c110 -142 283 -246 486 -292 118 -26 304 -24 415 5 229 60 375
206 398 400 17 144 -16 249 -105 332 -73 69 -122 93 -330 163 -242 81 -286
109 -286 185 0 88 70 133 208 132 143 -1 289 -66 367 -165 22 -28 44 -51 48
-51 8 0 223 194 228 205 6 15 -83 112 -146 158 -128 94 -233 135 -393 152
-121 12 -166 11 -264 -6z"/>
<path d="M5825 2257 l-190 -52 -30 -122 -29 -122 -105 -3 -105 -3 -27 -115
c-16 -63 -28 -123 -29 -132 0 -16 11 -18 100 -18 62 0 100 -4 100 -10 0 -6
-23 -111 -51 -233 -60 -260 -69 -350 -44 -427 49 -146 206 -221 435 -207 86 6
195 29 212 45 7 8 31 232 25 238 -2 2 -19 -1 -38 -6 -56 -17 -153 -14 -194 6
-38 18 -65 61 -65 105 0 19 75 357 101 452 l10 37 153 0 154 0 27 118 c14 64
29 125 31 135 5 16 -7 17 -151 17 -144 0 -156 1 -151 18 8 24 76 315 76 325 0
11 -14 8 -215 -46z"/>
<path d="M2060 1966 c-162 -45 -294 -178 -373 -376 -51 -130 -72 -337 -46
-462 28 -133 116 -245 224 -289 49 -19 78 -23 160 -23 90 0 106 2 158 29 61
30 149 111 174 158 8 16 16 27 18 25 2 -1 -5 -47 -15 -101 l-17 -97 175 2 175
3 128 554 c71 305 129 559 129 563 0 4 -85 8 -190 8 l-189 0 -10 -37 c-5 -21
-17 -73 -27 -116 l-18 -77 -17 46 c-38 99 -95 154 -193 187 -59 20 -180 21
-246 3z m283 -280 c96 -41 129 -158 88 -319 -25 -94 -51 -147 -104 -204 -52
-56 -84 -73 -142 -73 -109 0 -175 82 -175 218 0 251 172 447 333 378z"/>
<path d="M4450 1965 c-223 -51 -399 -228 -456 -460 -23 -94 -24 -261 -1 -336
48 -159 172 -280 344 -335 74 -24 272 -29 363 -10 108 22 247 94 302 154 43
49 75 99 67 106 -7 6 -294 116 -303 116 -5 0 -27 -21 -49 -46 -51 -58 -88 -74
-170 -74 -111 0 -198 68 -213 167 l-7 43 394 2 393 3 8 30 c15 52 10 245 -7
309 -41 155 -136 258 -290 316 -78 29 -277 37 -375 15z m255 -279 c34 -23 65
-90 65 -143 l0 -43 -205 0 c-135 0 -205 4 -205 10 0 36 70 135 121 171 55 39
168 42 224 5z"/>
<path d="M6340 1948 c0 -7 43 -266 96 -576 93 -541 97 -564 81 -596 -25 -53
-78 -108 -125 -129 -77 -33 -221 -18 -274 30 -16 14 -18 14 -27 -8 -5 -13 -29
-74 -54 -136 -33 -82 -42 -115 -33 -122 28 -23 120 -50 208 -61 244 -29 416
42 561 233 45 58 827 1357 827 1373 0 2 -91 4 -202 4 l-203 0 -127 -263 c-70
-144 -165 -340 -211 -436 -94 -194 -97 -195 -97 -32 0 91 -29 676 -36 709 -4
22 -5 22 -194 22 -145 0 -190 -3 -190 -12z"/>
</g>
</svg>
